<svg id="圖層_1" data-name="圖層 1" xmlns="http://www.w3.org/2000/svg" viewBox="0 0 500 500"><defs><style>.cls-1{fill:#93c7d3;}.cls-2{font-size:78.47px;font-family:NotoSansCJKtc-Bold-B5pc-H, Noto Sans CJK TC;}.cls-2,.cls-3{fill:#fff;}</style></defs><g id="g"><g id="g-2" data-name="g"><rect class="cls-1" x="153.05" y="117.76" width="323.28" height="18.43"/><path class="cls-1" d="M476.33,141.69H153.05V313.25A49.58,49.58,0,0,1,176.91,333H326.15a49.48,49.48,0,0,1,83.71,0h66.47Z"/><path id="s" class="cls-1" d="M476.32,351.64a7.35,7.35,0,0,1-2.51,5.45,9.16,9.16,0,0,1-6.08,2.23H417.45a49.17,49.17,0,0,0-3.76-18.95h62.63Z"/><path id="s-2" data-name="s" class="cls-1" d="M318.55,359.32h-134a49.16,49.16,0,0,0-3.75-18.95H322.3A49.16,49.16,0,0,0,318.55,359.32Z"/><path id="s-3" data-name="s" class="cls-1" d="M23.67,249.57v89.29a20.52,20.52,0,0,0,20.5,20.47H85.61a49.47,49.47,0,0,1,49.45-49.45,47.47,47.47,0,0,1,8.21.69V169.34s-33.38.17-50.45,2.71S57.87,186.36,44.2,200A69.85,69.85,0,0,0,23.67,249.57Zm14.39-1.3a51.28,51.28,0,0,1,15.09-36.39c10-10,23.15-18.67,35.69-20.55s37.05-2,37.05-2v62.58a7.22,7.22,0,0,1-1.66,4.64,7.11,7.11,0,0,1-4.2,2.51L46.79,273.68a7.28,7.28,0,0,1-8.73-7.15Z"/><path id="s-4" data-name="s" class="cls-1" d="M325.77,359.33a42.25,42.25,0,1,0,84.5,0,41.63,41.63,0,0,0-4.5-19,38.45,38.45,0,0,0-2.68-4.64c-.66-.94-1.33-1.88-2-2.76A42.29,42.29,0,0,0,335,333c-.72.88-1.38,1.82-2,2.76a38.45,38.45,0,0,0-2.68,4.64A41.63,41.63,0,0,0,325.77,359.33Zm20.36,0a21.84,21.84,0,0,1,11-19,21.75,21.75,0,0,1,21.77,0,21.87,21.87,0,1,1-32.76,19Z"/><path id="s-5" data-name="s" class="cls-1" d="M92.82,359.33a42.27,42.27,0,1,0,60.23-38.21,40.4,40.4,0,0,0-9.78-3.23,42.27,42.27,0,0,0-50.45,41.44Zm20.36,0a21.88,21.88,0,1,1,21.88,21.88A21.89,21.89,0,0,1,113.18,359.33Z"/></g></g><text class="cls-2" transform="translate(296.65 264.83)">冷凍</text><path class="cls-3" d="M220.25,231.55c-5.76-3.33-11.06-6.41-16.41-9.4a3.36,3.36,0,0,0-2.12,0c-3.21.78-6.4,1.64-9.6,2.47-3.69.94-6.44-.31-7.31-3.33-.83-2.85.7-5.21,4.24-6.57a5.67,5.67,0,0,0,1-.65c-2.13-1.25-4.13-2.4-6.09-3.6-2.93-1.79-3.79-4.55-2.32-7.22s4.47-3.34,7.38-1.78c2.06,1.1,4.06,2.3,6.44,3.65a22.91,22.91,0,0,1-.43-3.43,5.41,5.41,0,0,1,4.46-4.86,5.05,5.05,0,0,1,5.55,3.45c1.07,3.32,1.77,6.77,2.9,10.06a6.71,6.71,0,0,0,2.52,3.38c4.8,3,9.74,5.71,15.1,8.79,0-6.56,0-12.66-.05-18.76a3.73,3.73,0,0,0-1.22-2.09c-2.23-2.33-4.54-4.57-6.8-6.87-2.66-2.69-3-5.78-.86-8s4.94-2,7.83.3c.21.17.45.3,1.12.74,0-2.7,0-5.1,0-7.49.07-3.34,2.17-5.48,5.24-5.41s4.91,2.16,5,5.39c0,2.36,0,4.72,0,7.46.75-.54,1.25-.88,1.73-1.25,2.39-1.83,5.29-1.75,7.19.2a5.23,5.23,0,0,1-.19,7.4c-2.4,2.55-5,4.95-7.39,7.47a3.81,3.81,0,0,0-1.27,2.08c-.1,6.11-.06,12.22-.06,18.82,5.73-3.28,11.05-6.28,16.3-9.42a4.26,4.26,0,0,0,1.3-2.37c.87-3,1.6-6,2.43-9,1-3.52,3.47-5.42,6.25-4.81,3.22.7,4.61,3.3,3.88,7.25a3.7,3.7,0,0,0,.17.89c2.09-1.2,4.07-2.38,6.1-3.48,3-1.61,5.92-.93,7.41,1.64s.69,5.49-2.16,7.27c-1.91,1.2-3.89,2.3-6.13,3.61.78.39,1.3.67,1.84.92,2.8,1.27,4.11,3.82,3.29,6.42a5.28,5.28,0,0,1-6.57,3.45c-3.29-.82-6.54-1.85-9.86-2.55a5.72,5.72,0,0,0-3.63.45c-5,2.75-10,5.68-15.32,8.76,5.6,3.24,10.78,6.3,16,9.19a4.59,4.59,0,0,0,3,.06c2.77-.62,5.49-1.4,8.23-2.13,4.41-1.17,7.21-.1,8.16,3.12.89,3-.9,5.46-5.43,7,2.23,1.31,4.24,2.47,6.22,3.67,3.17,1.93,4.1,4.62,2.57,7.37s-4.62,3.35-7.85,1.57c-1.82-1-3.62-2.06-5.43-3.08-.13-.07-.34,0-.63,0,0,.4.05.77.12,1.12.64,3.17-.7,5.8-3.36,6.57-3.06.88-5.64-.64-6.65-4-.92-3.07-1.58-6.23-2.63-9.25a6.82,6.82,0,0,0-2.49-3.4c-4.66-2.88-9.47-5.51-14.24-8.23-.14-.08-.36,0-.89-.07,0,6.12-.05,12.22,0,18.32a3.72,3.72,0,0,0,1.23,2.08c2.23,2.32,4.56,4.55,6.82,6.84,2.67,2.71,3,5.77.83,8s-4.84,2.21-7.79-.24c-.21-.17-.44-.33-1.16-.85,0,2.65,0,4.94,0,7.23-.05,3.52-2.15,5.84-5.21,5.78s-5-2.3-5-5.67c0-1.14,0-2.27,0-3.41v-3.77c-.73.51-1.22.84-1.7,1.2-2.61,2-5.35,1.84-7.36-.4s-1.73-5.08.48-7.38,4.77-4.61,7-7.09a6.27,6.27,0,0,0,1.55-3.63c.16-5.65.07-11.3.07-17.5-5.79,3.34-11.19,6.4-16.51,9.59-.6.36-.88,1.4-1.1,2.18-.87,3.09-1.62,6.21-2.5,9.29-1,3.65-3.53,5.27-6.69,4.44-2.86-.74-4.13-3.41-3.37-7a4.36,4.36,0,0,0-.1-1c-2.12,1.2-4.09,2.35-6.09,3.45-3.14,1.71-6.11,1.09-7.64-1.54s-.73-5.52,2.39-7.41c2-1.21,4.06-2.35,6.25-3.61-4.59-1.89-6.27-4.27-5.31-7.24,1-3.24,3.91-4.61,8.47-2.81,7,2.74,13,2.07,18.89-2.59C214.49,234.48,217.24,233.29,220.25,231.55Z"/></svg>