<?xml version="1.0" encoding="utf-8"?>
<!-- Generator: Adobe Illustrator 23.0.0, SVG Export Plug-In . SVG Version: 6.00 Build 0)  -->
<svg version="1.1" id="圖層_1" xmlns="http://www.w3.org/2000/svg" xmlns:xlink="http://www.w3.org/1999/xlink" x="0px" y="0px"
	 viewBox="0 0 500 500" style="enable-background:new 0 0 500 500;" xml:space="preserve">
<style type="text/css">
	.st0{fill:#93C7D3;}
	.st1{fill:#FFFFFF;}
	.st2{fill:#FFFFFF;stroke:#FFFFFF;stroke-width:3;stroke-miterlimit:10;}
</style>
<g id="g">
	<g id="g-2">
		<rect x="153.1" y="117.8" class="st0" width="323.3" height="18.4"/>
		<path class="st0" d="M476.3,141.7H153.1v171.6c9.9,3.9,18.2,10.8,23.9,19.8h149.2c14.6-23.1,45.1-30,68.2-15.5
			c6.2,3.9,11.5,9.2,15.5,15.5h66.5V141.7z"/>
		<path id="s" class="st0" d="M476.3,351.6c0,2.1-0.9,4.1-2.5,5.5c-1.7,1.5-3.8,2.3-6.1,2.2h-50.3c0-6.5-1.3-12.9-3.8-19h62.6V351.6
			z"/>
		<path id="s-2" class="st0" d="M318.5,359.3h-134c0-6.5-1.3-12.9-3.8-19h141.5C319.8,346.4,318.5,352.8,318.5,359.3z"/>
		<path id="s-3" class="st0" d="M23.7,249.6v89.3c0,11.3,9.2,20.5,20.5,20.5h41.4c0-27.3,22.1-49.4,49.4-49.5c2.8,0,5.5,0.2,8.2,0.7
			V169.3c0,0-33.4,0.2-50.4,2.7s-35,14.3-48.6,27.9C31,213.1,23.6,231,23.7,249.6z M38.1,248.3c0-13.7,5.4-26.8,15.1-36.4
			c10-10,23.2-18.7,35.7-20.6s37.1-2,37.1-2v62.6c0,1.7-0.6,3.3-1.7,4.6c-1.1,1.3-2.5,2.2-4.2,2.5l-73.2,14.6
			c-3.9,0.8-7.8-1.7-8.6-5.7c-0.1-0.5-0.1-1-0.1-1.5V248.3z"/>
		<path id="s-4" class="st0" d="M325.8,359.3c0,23.3,18.9,42.3,42.3,42.3s42.3-18.9,42.3-42.3c0-6.6-1.5-13.1-4.5-19
			c-0.8-1.6-1.7-3.2-2.7-4.6c-0.7-0.9-1.3-1.9-2-2.8c-14.6-18.2-41.2-21.2-59.4-6.6c-2.5,2-4.7,4.2-6.6,6.7c-0.7,0.9-1.4,1.8-2,2.8
			c-1,1.5-1.9,3-2.7,4.6C327.3,346.3,325.8,352.7,325.8,359.3z M346.1,359.3c0-7.8,4.2-15.1,11-19c6.7-3.9,15-3.9,21.8,0
			c10.5,6,14.1,19.4,8.1,29.9c-6,10.5-19.4,14.1-29.9,8.1C350.3,374.4,346.2,367.1,346.1,359.3L346.1,359.3z"/>
		<path id="s-5" class="st0" d="M92.8,359.3c0,23.3,18.9,42.3,42.2,42.3s42.3-18.9,42.3-42.2c0-16.4-9.5-31.3-24.3-38.3
			c-3.1-1.5-6.4-2.6-9.8-3.2c-22.9-4.5-45.1,10.4-49.7,33.3C93.1,353.9,92.8,356.6,92.8,359.3z M113.2,359.3
			c0-12.1,9.8-21.9,21.9-21.9c12.1,0,21.9,9.8,21.9,21.9c0,12.1-9.8,21.9-21.9,21.9C123,381.2,113.2,371.4,113.2,359.3z"/>
	</g>
</g>
<path class="st1" d="M220.3,231.6c-5.8-3.3-11.1-6.4-16.4-9.4c-0.7-0.2-1.4-0.2-2.1,0c-3.2,0.8-6.4,1.6-9.6,2.5
	c-3.7,0.9-6.4-0.3-7.3-3.3c-0.8-2.9,0.7-5.2,4.2-6.6c0.4-0.2,0.7-0.4,1-0.6c-2.1-1.3-4.1-2.4-6.1-3.6c-2.9-1.8-3.8-4.6-2.3-7.2
	s4.5-3.3,7.4-1.8c2.1,1.1,4.1,2.3,6.4,3.6c-0.2-1.1-0.4-2.3-0.4-3.4c0.2-2.4,2-4.4,4.5-4.9c2.4-0.4,4.8,1.1,5.6,3.4
	c1.1,3.3,1.8,6.8,2.9,10.1c0.5,1.4,1.3,2.6,2.5,3.4c4.8,3,9.7,5.7,15.1,8.8c0-6.6,0-12.7-0.1-18.8c-0.2-0.8-0.6-1.5-1.2-2.1
	c-2.2-2.3-4.5-4.6-6.8-6.9c-2.7-2.7-3-5.8-0.9-8s4.9-2,7.8,0.3c0.2,0.2,0.4,0.3,1.1,0.7c0-2.7,0-5.1,0-7.5c0.1-3.3,2.2-5.5,5.2-5.4
	s4.9,2.2,5,5.4c0,2.4,0,4.7,0,7.5c0.8-0.5,1.3-0.9,1.7-1.3c2.4-1.8,5.3-1.8,7.2,0.2c2,2.1,1.9,5.4-0.2,7.4c0,0,0,0,0,0
	c-2.4,2.6-5,4.9-7.4,7.5c-0.6,0.5-1.1,1.3-1.3,2.1c-0.1,6.1-0.1,12.2-0.1,18.8c5.7-3.3,11.1-6.3,16.3-9.4c0.7-0.6,1.1-1.5,1.3-2.4
	c0.9-3,1.6-6,2.4-9c1-3.5,3.5-5.4,6.3-4.8c3.2,0.7,4.6,3.3,3.9,7.3c0,0.3,0.1,0.6,0.2,0.9c2.1-1.2,4.1-2.4,6.1-3.5
	c3-1.6,5.9-0.9,7.4,1.6s0.7,5.5-2.2,7.3c-1.9,1.2-3.9,2.3-6.1,3.6c0.8,0.4,1.3,0.7,1.8,0.9c2.8,1.3,4.1,3.8,3.3,6.4
	c-0.9,2.8-3.8,4.3-6.6,3.4c-3.3-0.8-6.5-1.9-9.9-2.6c-1.2-0.3-2.5-0.1-3.6,0.4c-5,2.8-10,5.7-15.3,8.8c5.6,3.2,10.8,6.3,16,9.2
	c1,0.4,2,0.4,3,0.1c2.8-0.6,5.5-1.4,8.2-2.1c4.4-1.2,7.2-0.1,8.2,3.1c0.9,3-0.9,5.5-5.4,7c2.2,1.3,4.2,2.5,6.2,3.7
	c3.2,1.9,4.1,4.6,2.6,7.4s-4.6,3.4-7.9,1.6c-1.8-1-3.6-2.1-5.4-3.1c-0.1-0.1-0.3,0-0.6,0c0,0.4,0,0.8,0.1,1.1
	c0.6,3.2-0.7,5.8-3.4,6.6c-3.1,0.9-5.6-0.6-6.6-4c-0.9-3.1-1.6-6.2-2.6-9.3c-0.5-1.4-1.3-2.6-2.5-3.4c-4.7-2.9-9.5-5.5-14.2-8.2
	c-0.1-0.1-0.4,0-0.9-0.1c0,6.1-0.1,12.2,0,18.3c0.2,0.8,0.6,1.5,1.2,2.1c2.2,2.3,4.6,4.5,6.8,6.8c2.7,2.7,3,5.8,0.8,8
	s-4.8,2.2-7.8-0.2c-0.2-0.2-0.4-0.3-1.2-0.9c0,2.6,0,4.9,0,7.2c-0.1,3.5-2.1,5.8-5.2,5.8s-5-2.3-5-5.7c0-1.1,0-2.3,0-3.4v-3.8
	c-0.7,0.5-1.2,0.8-1.7,1.2c-2.6,2-5.4,1.8-7.4-0.4s-1.7-5.1,0.5-7.4s4.8-4.6,7-7.1c0.9-1,1.4-2.3,1.6-3.6c0.2-5.7,0.1-11.3,0.1-17.5
	c-5.8,3.3-11.2,6.4-16.5,9.6c-0.6,0.4-0.9,1.4-1.1,2.2c-0.9,3.1-1.6,6.2-2.5,9.3c-1,3.6-3.5,5.3-6.7,4.4c-2.9-0.7-4.1-3.4-3.4-7
	c0-0.3,0-0.7-0.1-1c-2.1,1.2-4.1,2.4-6.1,3.5c-3.1,1.7-6.1,1.1-7.6-1.5s-0.7-5.5,2.4-7.4c2-1.2,4.1-2.4,6.3-3.6
	c-4.6-1.9-6.3-4.3-5.3-7.2c1-3.2,3.9-4.6,8.5-2.8c7,2.7,13,2.1,18.9-2.6C214.5,234.5,217.2,233.3,220.3,231.6z"/>
<g>
	<path class="st1" d="M316,194.9c-0.8,2.7-2.1,6.2-3.9,10.2l-2.7,5.6v57.6H306v-51.6c-3.1,5.1-6.8,9.8-11,14.1l-2-2.8
		c9.2-9.4,15.8-20.8,19.8-34.2L316,194.9z M368.4,245.6c-1.4,11.5-3.9,17.2-7.6,17.2c-2.8,0-5.7-3.5-8.8-10.4
		c-3.1-6.9-5.4-16.4-7-28.4h-20.3v26.8c5.6-1.6,11.3-3.6,17.1-6l0.3,3.2c-6,2.5-13,5-20.9,7.5l-1.3-2.5c0.9-0.6,1.4-1.5,1.4-2.5
		v-47.9c16.3-1.7,29.8-4.6,40.6-8.8l1.5,2.6c-5.4,1.9-11,3.5-16.8,4.9c0.1,5.5,0.6,12,1.5,19.6h19.8v3.1h-19.5
		c1.5,11.2,3.6,19.8,6.2,25.9c2.6,6.1,4.7,9.1,6.2,9.1c0.4,0,0.7-0.1,1-0.4s0.8-1.7,1.6-4.2c0.8-2.5,1.4-5.9,1.7-10L368.4,245.6z
		 M352.4,265.9h-31.2v-3.2h31.2V265.9z M344.6,220.9c-0.7-5.7-1.2-12-1.5-18.8c-5.3,1.2-11.4,2.2-18.5,3v15.8H344.6z"/>
	<path class="st1" d="M396.3,227.4l-2.4,3c-4.3-4-9.4-7.8-15.2-11.4l2.2-2.5C386.8,219.9,391.9,223.6,396.3,227.4z M396,239.5
		c-4.1,11.5-8.6,21.3-13.5,29.5l-2.9-2.3c4.8-8.1,9.2-17.9,13.4-29.4L396,239.5z M398.4,206.5l-2.6,2.6c-4-4.4-8.4-8.5-13.2-12.3
		l2.4-2.4C390.2,198.4,394.7,202.4,398.4,206.5z M453.2,266.7h-58.8v-3.1h7.4v-27.7h45.8v27.7h5.5V266.7z M444.4,227.4h-40.4v-30.6
		h40.4V227.4z M416,263.6v-24.5h-10.7v24.5H416z M441,224.2V200h-33.6v24.2H441z M437,218l-2.8,2.2c-2.9-3.5-6.4-6.5-10.6-8.9
		c-2.7,3.8-6,7.1-9.9,9.9l-2.3-2.4c6.1-3.6,10.4-8.9,12.8-16l3,0.8c-0.4,1.7-1,3.4-2,5C430.1,211.6,434,214.7,437,218z M430.1,263.6
		v-24.5h-10.7v24.5H430.1z M444.3,263.6v-24.5h-10.7v24.5H444.3z"/>
</g>
<g>
	<path class="st2" d="M316,194.9c-0.8,2.7-2.1,6.2-3.9,10.2l-2.7,5.6v57.6H306v-51.6c-3.1,5.1-6.8,9.8-11,14.1l-2-2.8
		c9.2-9.4,15.8-20.8,19.8-34.2L316,194.9z M368.4,245.6c-1.4,11.5-3.9,17.2-7.6,17.2c-2.8,0-5.7-3.5-8.8-10.4
		c-3.1-6.9-5.4-16.4-7-28.4h-20.3v26.8c5.6-1.6,11.3-3.6,17.1-6l0.3,3.2c-6,2.5-13,5-20.9,7.5l-1.3-2.5c0.9-0.6,1.4-1.5,1.4-2.5
		v-47.9c16.3-1.7,29.8-4.6,40.6-8.8l1.5,2.6c-5.4,1.9-11,3.5-16.8,4.9c0.1,5.5,0.6,12,1.5,19.6h19.8v3.1h-19.5
		c1.5,11.2,3.6,19.8,6.2,25.9c2.6,6.1,4.7,9.1,6.2,9.1c0.4,0,0.7-0.1,1-0.4s0.8-1.7,1.6-4.2c0.8-2.5,1.4-5.9,1.7-10L368.4,245.6z
		 M352.4,265.9h-31.2v-3.2h31.2V265.9z M344.6,220.9c-0.7-5.7-1.2-12-1.5-18.8c-5.3,1.2-11.4,2.2-18.5,3v15.8H344.6z"/>
	<path class="st2" d="M396.3,227.4l-2.4,3c-4.3-4-9.4-7.8-15.2-11.4l2.2-2.5C386.8,219.9,391.9,223.6,396.3,227.4z M396,239.5
		c-4.1,11.5-8.6,21.3-13.5,29.5l-2.9-2.3c4.8-8.1,9.2-17.9,13.4-29.4L396,239.5z M398.4,206.5l-2.6,2.6c-4-4.4-8.4-8.5-13.2-12.3
		l2.4-2.4C390.2,198.4,394.7,202.4,398.4,206.5z M453.2,266.7h-58.8v-3.1h7.4v-27.7h45.8v27.7h5.5V266.7z M444.4,227.4h-40.4v-30.6
		h40.4V227.4z M416,263.6v-24.5h-10.7v24.5H416z M441,224.2V200h-33.6v24.2H441z M437,218l-2.8,2.2c-2.9-3.5-6.4-6.5-10.6-8.9
		c-2.7,3.8-6,7.1-9.9,9.9l-2.3-2.4c6.1-3.6,10.4-8.9,12.8-16l3,0.8c-0.4,1.7-1,3.4-2,5C430.1,211.6,434,214.7,437,218z M430.1,263.6
		v-24.5h-10.7v24.5H430.1z M444.3,263.6v-24.5h-10.7v24.5H444.3z"/>
</g>
</svg>
