<svg id="圖層_1" data-name="圖層 1" xmlns="http://www.w3.org/2000/svg" viewBox="0 0 500 500"><defs><style>.cls-1{fill:#ea5514;}.cls-2{font-size:101.06px;fill:#fff;font-family:NotoSansCJKtc-Bold-B5pc-H, Noto Sans CJK TC;}</style></defs><g id="g"><g id="g-2" data-name="g"><rect class="cls-1" x="153.05" y="117.76" width="323.28" height="18.43"/><path class="cls-1" d="M476.33,141.69H153.05V313.25A49.58,49.58,0,0,1,176.91,333H326.15a49.48,49.48,0,0,1,83.71,0h66.47Z"/><path id="s" class="cls-1" d="M476.32,351.64a7.35,7.35,0,0,1-2.51,5.45,9.16,9.16,0,0,1-6.08,2.23H417.45a49.17,49.17,0,0,0-3.76-18.95h62.63Z"/><path id="s-2" data-name="s" class="cls-1" d="M318.55,359.32h-134a49.16,49.16,0,0,0-3.75-18.95H322.3A49.16,49.16,0,0,0,318.55,359.32Z"/><path id="s-3" data-name="s" class="cls-1" d="M23.67,249.57v89.29a20.52,20.52,0,0,0,20.5,20.47H85.61a49.47,49.47,0,0,1,49.45-49.45,47.47,47.47,0,0,1,8.21.69V169.34s-33.38.17-50.45,2.71S57.87,186.36,44.2,200A69.85,69.85,0,0,0,23.67,249.57Zm14.39-1.3a51.28,51.28,0,0,1,15.09-36.39c10-10,23.15-18.67,35.69-20.55s37.05-2,37.05-2v62.58a7.22,7.22,0,0,1-1.66,4.64,7.11,7.11,0,0,1-4.2,2.51L46.79,273.68a7.28,7.28,0,0,1-8.73-7.15Z"/><path id="s-4" data-name="s" class="cls-1" d="M325.77,359.33a42.25,42.25,0,1,0,84.5,0,41.63,41.63,0,0,0-4.5-19,38.45,38.45,0,0,0-2.68-4.64c-.66-.94-1.33-1.88-2-2.76A42.29,42.29,0,0,0,335,333c-.72.88-1.38,1.82-2,2.76a38.45,38.45,0,0,0-2.68,4.64A41.63,41.63,0,0,0,325.77,359.33Zm20.36,0a21.84,21.84,0,0,1,11-19,21.75,21.75,0,0,1,21.77,0,21.87,21.87,0,1,1-32.76,19Z"/><path id="s-5" data-name="s" class="cls-1" d="M92.82,359.33a42.27,42.27,0,1,0,60.23-38.21,40.4,40.4,0,0,0-9.78-3.23,42.27,42.27,0,0,0-50.45,41.44Zm20.36,0a21.88,21.88,0,1,1,21.88,21.88A21.89,21.89,0,0,1,113.18,359.33Z"/></g></g><text class="cls-2" transform="translate(202.16 264.83)">台 灣</text></svg>