<svg id="圖層_1" data-name="圖層 1" xmlns="http://www.w3.org/2000/svg" viewBox="0 0 32 22.95"><defs><style>.cls-1{fill:#21192c;}</style></defs><title>工作區域 1</title><g id="_8" data-name="8"><path class="cls-1" d="M2.32,6.79v3.59h0V6.79Z"/><path d="M29.67,6.78H2.32v3.6H29.67ZM27.5,2.2H4.5A2.17,2.17,0,0,0,2.33,4.37V4.6H29.68V4.37A2.18,2.18,0,0,0,27.5,2.2Zm0-2.2a4.38,4.38,0,0,1,4.38,4.37V18.56a4.38,4.38,0,0,1-4.38,4.38H4.5A4.38,4.38,0,0,1,.13,18.56V4.37A4.37,4.37,0,0,1,4.5,0Zm0,20.75a2.18,2.18,0,0,0,2.18-2.19v-6H2.33v6A2.17,2.17,0,0,0,4.5,20.75Z"/><path class="cls-1" d="M.12,5.69v5.78a.49.49,0,0,0,0,.12v-6A.41.41,0,0,0,.12,5.69Z"/><path d="M25.4,15.53a1.1,1.1,0,1,1,0,2.2h-2a1.1,1.1,0,0,1,0-2.2Z"/></g></svg>